<?xml version="1.0" encoding="iso-8859-1"?>
<!-- Generator: Adobe Illustrator 16.0.0, SVG Export Plug-In . SVG Version: 6.00 Build 0)  -->
<!DOCTYPE svg PUBLIC "-//W3C//DTD SVG 1.1//EN" "http://www.w3.org/Graphics/SVG/1.1/DTD/svg11.dtd">
<svg version="1.1" id="Capa_1" xmlns="http://www.w3.org/2000/svg" xmlns:xlink="http://www.w3.org/1999/xlink" x="0px" y="0px"
	 width="57.068px" height="57.068px" viewBox="0 0 57.068 57.068" style="enable-background:new 0 0 57.068 57.068;"
	 xml:space="preserve">
<g>
	<g>
		<path  d="M28.534,57.068c-6.844,0-12.413-5.568-12.413-12.413V8.399c0-0.375,0.103-0.726,0.283-1.025
			C17.45,3.145,21.277,0,25.824,0c5.35,0,9.703,4.353,9.703,9.703v27.888c0,3.856-3.137,6.994-6.994,6.994
			c-3.857,0-6.994-3.138-6.994-6.994V15.838c0-1.104,0.896-2,2-2s2,0.896,2,2v21.753c0,1.651,1.343,2.994,2.994,2.994
			c1.65,0,2.994-1.343,2.994-2.994V9.703C31.527,6.558,28.968,4,25.824,4s-5.703,2.559-5.703,5.703v34.952
			c0,4.639,3.774,8.413,8.413,8.413c4.64,0,8.413-3.774,8.413-8.413V15.836c0-1.104,0.896-2,2-2s2,0.896,2,2v28.819
			C40.947,51.5,35.379,57.068,28.534,57.068z"/>
			<path fill="none" d="M0 0h24v24H0z"/>
			
	</g>
</g>
<g>
</g>
<g>
</g>
<g>
</g>
<g>
</g>
<g>
</g>
<g>
</g>
<g>
</g>
<g>
</g>
<g>
</g>
<g>
</g>
<g>
</g>
<g>
</g>
<g>
</g>
<g>
</g>
<g>
</g>
</svg>
